<svg width="33" height="36" viewBox="0 0 33 36" fill="#43AC3E" xmlns="http://www.w3.org/2000/svg">
    <g clip-path="url(#clip0_268_80)">
        <path d="M7.92969 14.7253H5.81055C5.67383 14.7253 5.54281 14.7481 5.41748 14.7937C5.29215 14.8393 5.18392 14.9076 5.09277 14.9988C5.00163 15.0899 4.92757 15.1982 4.87061 15.3235C4.81364 15.4488 4.78516 15.5798 4.78516 15.7166L4.81934 23.3044C4.81934 23.6007 4.91618 23.8456 5.10986 24.0393C5.30355 24.233 5.53711 24.3298 5.81055 24.3298C6.08398 24.3298 6.31755 24.233 6.51123 24.0393C6.70492 23.8456 6.80176 23.6007 6.80176 23.3044V21.0144C7.00684 21.0144 7.21191 21.0144 7.41699 21.0144C7.62207 21.0144 7.79297 21.0144 7.92969 21.0144C8.79557 21.0144 9.54183 20.7068 10.1685 20.0916C10.7951 19.4763 11.1084 18.7358 11.1084 17.8699C11.1084 17.004 10.7951 16.2634 10.1685 15.6482C9.54183 15.033 8.79557 14.7253 7.92969 14.7253ZM7.92969 18.9978C7.79297 18.9978 7.62207 18.9978 7.41699 18.9978C7.21191 18.9978 7.00684 18.9978 6.80176 18.9978C6.80176 18.7927 6.80176 18.5876 6.80176 18.3826C6.80176 18.1775 6.80176 18.0066 6.80176 17.8699C6.80176 17.7559 6.80176 17.5907 6.80176 17.3743C6.80176 17.1578 6.80176 16.9356 6.80176 16.7078H7.92969C8.2487 16.7078 8.52214 16.8217 8.75 17.0496C8.97786 17.2774 9.0918 17.5509 9.0918 17.8699C9.0918 18.1661 8.97786 18.4281 8.75 18.656C8.52214 18.8839 8.2487 18.9978 7.92969 18.9978ZM16.4404 14.7253H14.3213C14.2074 14.7253 14.0877 14.7481 13.9624 14.7937C13.8371 14.8393 13.7288 14.9076 13.6377 14.9988C13.5465 15.0899 13.4725 15.1982 13.4155 15.3235C13.3586 15.4488 13.3301 15.5798 13.3301 15.7166C13.3301 15.7166 13.3301 16.1039 13.3301 16.8787C13.3301 17.6306 13.3301 18.468 13.3301 19.3909C13.3301 20.3137 13.3415 21.1625 13.3643 21.9373C13.3643 22.712 13.3643 23.0994 13.3643 23.0994C13.3643 23.2361 13.387 23.3614 13.4326 23.4753C13.4782 23.5893 13.5465 23.7032 13.6377 23.8171C13.7288 23.9083 13.8371 23.9766 13.9624 24.0222C14.0877 24.0678 14.2188 24.0906 14.3555 24.0906C14.3783 24.0906 14.6688 24.0906 15.2271 24.0906C15.7853 24.0906 16.2126 24.0906 16.5088 24.0906C17.6253 24.0678 18.5539 23.6121 19.2944 22.7234C20.035 21.8347 20.4053 20.7296 20.4053 19.408C20.4053 17.9952 20.0407 16.8616 19.3115 16.0071C18.5824 15.1526 17.6253 14.7253 16.4404 14.7253ZM16.4746 22.074C16.3379 22.074 16.167 22.074 15.9619 22.074C15.7568 22.074 15.5518 22.074 15.3467 22.074C15.3467 21.641 15.3467 20.7524 15.3467 19.408C15.3467 18.0636 15.3467 17.1635 15.3467 16.7078H16.4404C17.3519 16.7078 17.9045 17.078 18.0981 17.8186C18.2918 18.5592 18.3887 19.0889 18.3887 19.408C18.3887 20.0688 18.2349 20.6783 17.9272 21.2366C17.6196 21.7948 17.1354 22.074 16.4746 22.074ZM27.002 16.6394C27.2754 16.6394 27.509 16.5426 27.7026 16.3489C27.8963 16.1552 27.9932 15.9216 27.9932 15.6482C27.9932 15.3748 27.8963 15.1355 27.7026 14.9304C27.509 14.7253 27.2754 14.6228 27.002 14.6228H23.9258C23.6523 14.6228 23.4188 14.7253 23.2251 14.9304C23.0314 15.1355 22.9346 15.3748 22.9346 15.6482V23.2019C22.9346 23.4753 23.0314 23.7089 23.2251 23.9026C23.4188 24.0963 23.6523 24.1931 23.9258 24.1931C24.222 24.1931 24.467 24.0963 24.6606 23.9026C24.8543 23.7089 24.9512 23.4753 24.9512 23.2019V20.3308H26.7627C27.0361 20.3308 27.2697 20.234 27.4634 20.0403C27.6571 19.8466 27.7539 19.613 27.7539 19.3396C27.7539 19.0662 27.6571 18.8326 27.4634 18.6389C27.2697 18.4452 27.0361 18.3484 26.7627 18.3484H24.9512V16.6394H27.002ZM29.9414 10.4529H29.2236V10.1794C29.2236 9.51864 29.104 8.89201 28.8647 8.29956C28.6255 7.70711 28.278 7.18302 27.8223 6.72729L23.6865 2.35229C23.208 1.85099 22.6554 1.46362 22.0288 1.19019C21.4022 0.916748 20.7471 0.780029 20.0635 0.780029H6.7334C5.91309 0.780029 5.20671 1.07056 4.61426 1.65161C4.02181 2.23267 3.72559 2.94474 3.72559 3.78784V10.4529H3.00781C2.16471 10.4529 1.45264 10.7434 0.871582 11.3245C0.290527 11.9055 0 12.6176 0 13.4607V25.4578C0 26.2781 0.290527 26.9845 0.871582 27.5769C1.45264 28.1694 2.16471 28.4656 3.00781 28.4656H3.72559V31.9177C3.72559 32.738 4.02181 33.4444 4.61426 34.0369C5.20671 34.6293 5.91309 34.9255 6.7334 34.9255H26.2158C27.0361 34.9255 27.7425 34.6293 28.335 34.0369C28.9274 33.4444 29.2236 32.738 29.2236 31.9177V28.4656H29.9414C30.7617 28.4656 31.4681 28.1694 32.0605 27.5769C32.653 26.9845 32.9492 26.2781 32.9492 25.4578V13.4607C32.9492 12.6176 32.653 11.9055 32.0605 11.3245C31.4681 10.7434 30.7617 10.4529 29.9414 10.4529ZM5.74219 3.78784C5.74219 3.5144 5.83903 3.28084 6.03271 3.08716C6.2264 2.89347 6.45996 2.79663 6.7334 2.79663H20.0635C20.4736 2.79663 20.8667 2.87638 21.2427 3.03589C21.6187 3.19539 21.9434 3.42326 22.2168 3.71948L26.3867 8.09448C26.6602 8.36792 26.8652 8.68693 27.002 9.05151C27.1387 9.4161 27.207 9.79207 27.207 10.1794V10.4529H5.74219V3.78784ZM27.207 31.9177C27.207 32.1912 27.1102 32.4247 26.9165 32.6184C26.7228 32.8121 26.4893 32.9089 26.2158 32.9089H6.7334C6.45996 32.9089 6.2264 32.8121 6.03271 32.6184C5.83903 32.4247 5.74219 32.1912 5.74219 31.9177V28.4656H27.207V31.9177ZM30.9326 25.4578C30.9326 25.7312 30.8358 25.9648 30.6421 26.1584C30.4484 26.3521 30.2148 26.449 29.9414 26.449H3.00781C2.73438 26.449 2.50081 26.3521 2.30713 26.1584C2.11344 25.9648 2.0166 25.7312 2.0166 25.4578V13.4607C2.0166 13.1873 2.11344 12.948 2.30713 12.7429C2.50081 12.5378 2.73438 12.4353 3.00781 12.4353H29.9414C30.2148 12.4353 30.4484 12.5378 30.6421 12.7429C30.8358 12.948 30.9326 13.1873 30.9326 13.4607V25.4578Z"
        />
    </g>
    <defs>
        <clipPath id="clip0_268_80">
            <rect width="32.95" height="35" transform="matrix(1 0 0 -1 0 35.78)"/>
        </clipPath>
    </defs>
</svg>
