<svg width="256" height="64" viewBox="0 0 256 64" fill="none" xmlns="http://www.w3.org/2000/svg">
<path d="M81.3261 53.0183C81.4795 53.0183 81.6097 53.0717 81.7158 53.1781C81.8264 53.2878 81.8814 53.4182 81.8814 53.5681V61.0547C81.8814 61.2084 81.8264 61.3382 81.7158 61.4447C81.6097 61.5552 81.4795 61.6099 81.3261 61.6099C81.1721 61.6099 81.0422 61.5552 80.936 61.4447C80.8256 61.3382 80.7702 61.2084 80.7702 61.0547V54.1233H79.3405C78.966 54.1233 78.6472 54.2554 78.3832 54.5195C78.1194 54.7827 77.9872 55.1025 77.9872 55.4764V61.0725C77.9872 61.2261 77.934 61.3581 77.8279 61.4678C77.7175 61.5744 77.5876 61.6276 77.4379 61.6276C77.2841 61.6276 77.1522 61.5744 77.0421 61.4678C76.9354 61.3581 76.8822 61.2261 76.8822 61.0725V55.4764C76.8822 54.7991 77.1228 54.2199 77.603 53.7388C78.0839 53.2584 78.6629 53.0183 79.3405 53.0183H81.3261ZM99.7905 21.3322C99.2145 20.7932 98.5613 20.3577 97.8486 20.0376C97.1126 19.7074 96.3287 19.5402 95.518 19.5402H82.3114C81.5008 19.5402 80.7165 19.7074 79.9808 20.0376C79.2687 20.3577 78.6123 20.7917 78.0309 21.328C77.4428 21.8701 76.9621 22.4998 76.6022 23.201C76.2281 23.9306 76.0381 24.7191 76.0381 25.5435V39.1911C76.0381 39.9812 76.2266 40.7582 76.5988 41.5023C76.961 42.2267 77.4464 42.8622 78.0406 43.3907C78.6213 43.9086 79.2741 44.3313 79.9808 44.648C80.7163 44.9781 81.5004 45.1457 82.3114 45.1457H95.518C96.3287 45.1457 97.1134 44.9781 97.8476 44.648C98.555 44.3313 99.2059 43.907 99.7813 43.3869C100.365 42.8586 100.844 42.2247 101.206 41.5019C101.578 40.7567 101.767 39.9796 101.767 39.1911V25.5435C101.767 24.7202 101.577 23.9323 101.202 23.2001C100.843 22.5016 100.368 21.8735 99.7905 21.3322ZM96.3751 37.0103C96.3751 38.9337 95.5395 39.7541 93.5821 39.7541H84.1487C82.2429 39.7541 81.4297 38.9337 81.4297 37.0103V27.7242C81.4297 25.7665 82.2429 24.9314 84.1487 24.9314H93.5821C95.5395 24.9314 96.3751 25.7665 96.3751 27.7242V37.0103ZM136.666 24.9314H145.021V45.1457H150.413V24.9314H158.767V19.5402H136.666V24.9314ZM183.689 19.5402V37.0209L170.346 39.864C169.776 39.985 169.365 39.7397 169.17 39.5826C168.976 39.4251 168.65 39.0746 168.65 38.4923V19.5249H163.181V38.4923C163.181 40.576 164.11 42.5229 165.729 43.8336C166.968 44.836 168.485 45.3656 170.042 45.3656C170.522 45.3656 171.005 45.3156 171.485 45.2133L183.689 42.6129V45.1457H185.656H189.081V25.5846V19.5402H187.115H183.689ZM221.919 19.5402C221.13 19.5402 220.417 19.7437 219.799 20.1449C219.191 20.5405 218.767 21.0145 218.539 21.5537L209.62 37.8251L200.727 21.5171L200.68 21.4411C200.324 20.9362 199.908 20.5024 199.445 20.1519C198.907 19.7462 198.208 19.5402 197.368 19.5402C196.323 19.5402 195.436 19.8978 194.73 20.6029C194.025 21.308 193.667 22.2119 193.667 23.2894V45.1457H199.059V30.1397L206.328 43.105C206.668 43.6611 207.016 44.1177 207.361 44.4629C207.821 44.9222 208.576 45.1457 209.667 45.1457C210.718 45.1457 211.46 44.9271 211.935 44.4768C212.314 44.1175 212.657 43.6429 212.956 43.0668L220.203 30.1397V45.1457H225.594V23.2894C225.594 22.2152 225.242 21.3129 224.547 20.6068C223.85 19.899 222.965 19.5402 221.919 19.5402ZM255.383 23.2789C255.019 22.548 254.53 21.893 253.932 21.3327C253.336 20.7748 252.657 20.3276 251.913 20.0038C251.173 19.6822 250.371 19.5402 249.565 19.5402C247.625 19.5402 242.858 19.5402 240.089 19.5402C238.781 19.5402 237.56 20.1819 236.815 21.2575L234.859 24.0806C234.61 24.4402 234.867 24.9314 235.304 24.9314H247.724C249.631 24.9314 250.473 25.7244 250.514 27.5766H236.452C235.652 27.5766 234.876 27.7285 234.146 28.0276C233.421 28.3254 232.755 28.7563 232.167 29.308C231.555 29.882 231.061 30.5465 230.697 31.281C230.343 31.9984 230.18 32.7961 230.18 33.5963L230.18 39.1911C230.18 39.9814 230.368 40.7591 230.74 41.5019C231.102 42.2254 231.587 42.8611 232.182 43.3905C232.897 44.0282 233.722 44.523 234.626 44.852C235.209 45.0642 235.827 45.1457 236.448 45.1457C239.025 45.1457 247.103 45.1457 249.664 45.1457C250.279 45.1457 250.892 45.0652 251.471 44.8565C252.384 44.5275 253.212 44.03 253.921 43.3873C254.506 42.8595 254.985 42.2254 255.347 41.5019C255.719 40.758 255.907 39.9802 255.907 39.1911L255.908 25.5898C255.908 24.7905 255.74 23.9943 255.383 23.2789ZM250.516 37.0103C250.516 38.9337 249.681 39.7541 247.724 39.7541H238.29C236.384 39.7541 235.571 38.9337 235.571 37.0103V35.6872C235.571 33.7814 236.384 32.9682 238.29 32.9682H247.724C249.681 32.9682 250.516 33.7814 250.516 35.6872V37.0103ZM87.2549 60.5227C87.4086 60.5227 87.5387 60.5758 87.6449 60.6824C87.7553 60.7928 87.8105 60.9225 87.8105 61.0725C87.8105 61.2261 87.7553 61.3581 87.6449 61.4678C87.5387 61.5744 87.4086 61.6276 87.2549 61.6276H84.3417C84.188 61.6276 84.0561 61.5744 83.9459 61.4678C83.8395 61.3581 83.7861 61.2261 83.7861 61.0725V53.6801C83.7861 53.5304 83.8395 53.4005 83.9459 53.29C84.0561 53.1835 84.188 53.1303 84.3417 53.1303H87.2549C87.4086 53.1303 87.5387 53.1835 87.6449 53.29C87.7553 53.4005 87.8105 53.5304 87.8105 53.6801C87.8105 53.8338 87.7553 53.9635 87.6449 54.0701C87.5387 54.1805 87.4086 54.2352 87.2549 54.2352H84.8913V56.5282H86.9006C87.0543 56.5282 87.1858 56.5813 87.2962 56.6879C87.4028 56.7945 87.4557 56.9242 87.4557 57.0779C87.4557 57.2314 87.4028 57.3613 87.2962 57.4677C87.1858 57.5781 87.0543 57.6331 86.9006 57.6331H84.8913V60.5227H87.2549ZM93.7632 52.9178C93.9168 52.9178 94.047 52.9727 94.1532 53.0832C94.2635 53.1897 94.3187 53.3195 94.3187 53.4732V61.0725C94.3187 61.2261 94.2635 61.3581 94.1532 61.4678C94.047 61.5744 93.9168 61.6276 93.7632 61.6276C93.6094 61.6276 93.4792 61.5744 93.3731 61.4678C93.2665 61.3581 93.2138 61.2261 93.2138 61.0725V58.0763C92.7998 58.348 92.3488 58.484 91.8605 58.484H91.8192C91.1415 58.484 90.5623 58.2439 90.0817 57.7635C89.6014 57.2826 89.3606 56.7034 89.3606 56.0262V53.4732C89.3606 53.3195 89.4141 53.1897 89.5206 53.0832C89.6306 52.9727 89.7628 52.9178 89.9165 52.9178C90.0662 52.9178 90.1958 52.9727 90.3063 53.0832C90.4124 53.1897 90.4658 53.3195 90.4658 53.4732V56.0262C90.4658 56.4007 90.5978 56.7196 90.8619 56.9827C91.1256 57.2469 91.4446 57.3791 91.8192 57.3791H91.8605C92.2307 57.3791 92.5478 57.2469 92.8117 56.9827C93.0798 56.7196 93.2138 56.4007 93.2138 56.0262V53.4732C93.2138 53.3195 93.2665 53.1897 93.3731 53.0832C93.4792 52.9727 93.6094 52.9178 93.7632 52.9178ZM99.6922 60.5227C99.846 60.5227 99.9761 60.5758 100.082 60.6824C100.193 60.7928 100.248 60.9225 100.248 61.0725C100.248 61.2261 100.193 61.3581 100.082 61.4678C99.9761 61.5744 99.846 61.6276 99.6922 61.6276H96.7791C96.6254 61.6276 96.4932 61.5744 96.3832 61.4678C96.2767 61.3581 96.2235 61.2261 96.2235 61.0725V53.6801C96.2235 53.5304 96.2767 53.4005 96.3832 53.29C96.4932 53.1835 96.6254 53.1303 96.7791 53.1303H99.6922C99.846 53.1303 99.9761 53.1835 100.082 53.29C100.193 53.4005 100.248 53.5304 100.248 53.6801C100.248 53.8338 100.193 53.9635 100.082 54.0701C99.9761 54.1805 99.846 54.2352 99.6922 54.2352H97.3284V56.5282H99.3377C99.4914 56.5282 99.6231 56.5813 99.7335 56.6879C99.8401 56.7945 99.8928 56.9242 99.8928 57.0779C99.8928 57.2314 99.8401 57.3613 99.7335 57.4677C99.6231 57.5781 99.4914 57.6331 99.3377 57.6331H97.3284V60.5227H99.6922ZM104.351 56.5874C105.024 56.5912 105.6 56.8376 106.076 57.3257C106.553 57.8146 106.791 58.4014 106.791 59.0872V59.128C106.791 59.8138 106.553 60.4006 106.076 60.8887C105.6 61.3774 105.024 61.6238 104.351 61.6276H104.345H102.531C102.377 61.6276 102.245 61.5728 102.135 61.4625C102.028 61.352 101.975 61.2199 101.975 61.0664V53.6863C101.975 53.5288 102.028 53.3944 102.135 53.284C102.245 53.1736 102.377 53.1186 102.531 53.1186H105.905C106.054 53.1186 106.185 53.1736 106.295 53.284C106.401 53.3944 106.454 53.5288 106.454 53.6863C106.454 53.84 106.401 53.972 106.295 54.0817C106.185 54.1921 106.054 54.2476 105.905 54.2476H103.08V56.5874H104.351ZM112.419 52.9234C112.573 52.9234 112.703 52.9766 112.809 53.0832C112.915 53.1897 112.968 53.3195 112.968 53.4732V61.0725C112.968 61.2261 112.915 61.3581 112.809 61.4678C112.703 61.5744 112.573 61.6276 112.419 61.6276C112.265 61.6276 112.136 61.5744 112.029 61.4678C111.919 61.3581 111.864 61.2261 111.864 61.0725V57.5265H109.624V61.0725C109.624 61.2261 109.571 61.3581 109.464 61.4678C109.354 61.5744 109.224 61.6276 109.075 61.6276C108.921 61.6276 108.789 61.5744 108.679 61.4678C108.572 61.3581 108.519 61.2261 108.519 61.0725V53.4732C108.519 53.3195 108.572 53.1897 108.679 53.0832C108.789 52.9766 108.921 52.9234 109.075 52.9234C109.224 52.9234 109.354 52.9766 109.464 53.0832C109.571 53.1897 109.624 53.3195 109.624 53.4732V56.4222H111.864V53.4732C111.864 53.3195 111.919 53.1897 112.029 53.0832C112.136 52.9766 112.265 52.9234 112.419 52.9234ZM115.435 60.8887C114.943 60.4006 114.696 59.81 114.696 59.1164V55.4292C114.696 54.7397 114.943 54.1488 115.435 53.656C115.923 53.1682 116.514 52.9234 117.208 52.9234C117.901 52.9234 118.492 53.1682 118.98 53.656C119.473 54.1488 119.719 54.7397 119.719 55.4292V59.1164C119.719 59.81 119.473 60.4006 118.98 60.8887C118.492 61.3815 117.901 61.6276 117.208 61.6276C116.514 61.6276 115.923 61.3815 115.435 60.8887ZM125.619 57.7217C125.508 57.8283 125.377 57.8817 125.223 57.8817H121.648C121.494 57.8817 121.362 57.8283 121.252 57.7217C121.146 57.6113 121.093 57.4794 121.093 57.3257C121.093 57.176 121.146 57.0461 121.252 56.9356C121.362 56.8299 121.494 56.7768 121.648 56.7768H125.223C125.377 56.7768 125.508 56.8299 125.619 56.9356C125.725 57.0461 125.778 57.176 125.778 57.3257C125.778 57.4794 125.725 57.6113 125.619 57.7217ZM132.853 62.5497C132.924 62.6832 132.938 62.823 132.895 62.969C132.851 63.1149 132.763 63.2231 132.629 63.294C132.495 63.369 132.355 63.3844 132.209 63.3411C132.063 63.298 131.955 63.2092 131.884 63.0754L131.092 61.6456H128.569C128.561 61.6456 128.542 61.6431 128.51 61.6393L127.736 63.0754C127.665 63.2092 127.555 63.298 127.405 63.3411C127.259 63.3844 127.12 63.369 126.986 63.294C126.852 63.2231 126.763 63.1149 126.72 62.969C126.676 62.823 126.692 62.6832 126.767 62.5497L127.547 61.0956V60.647V53.5441C127.547 53.4693 127.561 53.3982 127.588 53.3311C127.687 53.1072 127.858 52.9943 128.102 52.9943H131.5C131.654 52.9943 131.784 53.0477 131.89 53.1543C132.001 53.2647 132.056 53.3944 132.056 53.5441L132.05 61.0956L132.853 62.5497ZM134.192 61.0547C134.192 61.0547 134.192 61.0601 134.192 61.0725V53.4732C134.192 53.3195 134.244 53.1897 134.351 53.0832C134.461 52.9727 134.593 52.9178 134.747 52.9178C134.897 52.9178 135.026 52.9727 135.137 53.0832C135.243 53.1897 135.297 53.3195 135.297 53.4732V58.7266L138.044 53.2192L138.05 53.2075L138.056 53.2012C138.072 53.1781 138.087 53.1565 138.103 53.1363V53.1303C138.213 52.9889 138.357 52.9178 138.535 52.9178C138.688 52.9178 138.818 52.9727 138.924 53.0832C139.035 53.1897 139.09 53.3195 139.09 53.4732V61.0725C139.09 61.2261 139.035 61.3559 138.924 61.4625C138.818 61.5728 138.688 61.6276 138.535 61.6276C138.381 61.6276 138.251 61.5728 138.145 61.4625C138.038 61.3559 137.985 61.2261 137.985 61.0725V55.819L135.237 61.3264C135.166 61.4602 135.058 61.5513 134.912 61.5985C134.766 61.6456 134.626 61.6339 134.493 61.5628C134.335 61.484 134.239 61.3559 134.203 61.1781V61.1667C134.199 61.1474 134.198 61.1258 134.198 61.1018C134.193 61.0702 134.192 61.0547 134.192 61.0547ZM145.213 54.4715C145.288 54.6964 145.326 54.9248 145.326 55.1573V61.0725C145.326 61.2261 145.27 61.3581 145.16 61.4678C145.054 61.5744 144.924 61.6276 144.77 61.6276C144.617 61.6276 144.487 61.5744 144.38 61.4678C144.274 61.3581 144.221 61.2261 144.221 61.0725V57.5265H141.922V61.0725C141.922 61.2261 141.869 61.3581 141.763 61.4678C141.653 61.5744 141.522 61.6276 141.372 61.6276C141.22 61.6276 141.087 61.5744 140.977 61.4678C140.87 61.3581 140.817 61.2261 140.817 61.0725V55.1573C140.817 54.9248 140.853 54.6964 140.924 54.4715C140.935 54.4323 140.938 54.4228 140.93 54.4423C141.174 53.7218 141.658 53.2483 142.383 53.0246C142.387 53.0246 142.393 53.0221 142.401 53.0183C142.46 53.0028 142.521 52.9867 142.584 52.9712H142.602C142.613 52.9673 142.622 52.9649 142.626 52.9649C142.681 52.9535 142.738 52.9433 142.797 52.9357L142.838 52.9294C142.917 52.9256 142.988 52.9234 143.051 52.9234H143.092C143.155 52.9234 143.224 52.9256 143.299 52.9294L143.346 52.9357C143.406 52.9433 143.463 52.9535 143.518 52.9649C143.521 52.9649 143.528 52.9673 143.535 52.9712H143.559C143.622 52.9867 143.683 53.0028 143.742 53.0183C143.746 53.0221 143.75 53.0246 143.754 53.0246C144.479 53.2483 144.963 53.7218 145.208 54.4423C145.212 54.4461 145.213 54.4522 145.213 54.4601V54.4715ZM150.21 53.0067C150.363 53.0067 150.493 53.0594 150.599 53.1657C150.71 53.2762 150.765 53.4083 150.765 53.562C150.765 53.7117 150.71 53.8414 150.599 53.9518C150.493 54.0584 150.363 54.1118 150.21 54.1118H148.159V61.0725C148.159 61.2261 148.106 61.3581 148 61.4678C147.889 61.5744 147.759 61.6276 147.61 61.6276C147.456 61.6276 147.324 61.5744 147.214 61.4678C147.108 61.3581 147.054 61.2261 147.054 61.0725V53.562C147.054 53.4083 147.109 53.2762 147.22 53.1657C147.326 53.0594 147.456 53.0067 147.61 53.0067H150.21ZM156.215 52.9234C156.369 52.9234 156.498 52.9766 156.605 53.0832C156.712 53.1897 156.765 53.3195 156.765 53.4732V61.0725C156.765 61.2261 156.712 61.3581 156.605 61.4678C156.498 61.5744 156.369 61.6276 156.215 61.6276C156.061 61.6276 155.932 61.5744 155.825 61.4678C155.715 61.3581 155.66 61.2261 155.66 61.0725V57.5265H153.42V61.0725C153.42 61.2261 153.367 61.3581 153.261 61.4678C153.15 61.5744 153.02 61.6276 152.871 61.6276C152.717 61.6276 152.585 61.5744 152.475 61.4678C152.369 61.3581 152.315 61.2261 152.315 61.0725V53.4732C152.315 53.3195 152.369 53.1897 152.475 53.0832C152.585 52.9766 152.717 52.9234 152.871 52.9234C153.02 52.9234 153.15 52.9766 153.261 53.0832C153.367 53.1897 153.42 53.3195 153.42 53.4732V56.4222H155.66V53.4732C155.66 53.3195 155.715 53.1897 155.825 53.0832C155.932 52.9766 156.061 52.9234 156.215 52.9234ZM159.231 60.8887C158.739 60.4006 158.492 59.81 158.492 59.1164V55.4292C158.492 54.7397 158.739 54.1488 159.231 53.656C159.719 53.1682 160.31 52.9234 161.004 52.9234C161.697 52.9234 162.288 53.1682 162.776 53.656C163.269 54.1488 163.515 54.7397 163.515 55.4292V59.1164C163.515 59.81 163.269 60.4006 162.776 60.8887C162.288 61.3815 161.697 61.6276 161.004 61.6276C160.31 61.6276 159.719 61.3815 159.231 60.8887ZM168.931 59.3883C169.116 59.3883 169.265 59.4648 169.38 59.6183C169.49 59.7683 169.516 59.9318 169.457 60.1087C169.307 60.5543 169.039 60.9165 168.653 61.1961C168.263 61.484 167.826 61.6276 167.341 61.6276H167.306C166.687 61.6276 166.16 61.409 165.722 60.9722C165.285 60.5344 165.066 60.0068 165.066 59.3883V55.1573C165.066 54.5426 165.285 54.0167 165.722 53.5798C166.16 53.1426 166.687 52.9234 167.306 52.9234H167.341C167.826 52.9234 168.263 53.0654 168.653 53.3488C169.039 53.6291 169.307 53.9935 169.457 54.4423C169.516 54.616 169.49 54.7789 169.38 54.9327C169.265 55.0823 169.116 55.1573 168.931 55.1573C168.667 55.1573 168.493 55.0368 168.41 54.7967C168.336 54.568 168.2 54.3836 168.003 54.2415C167.806 54.0995 167.585 54.0283 167.341 54.0283H167.306C166.99 54.0283 166.723 54.1387 166.502 54.3596C166.282 54.5806 166.171 54.8461 166.171 55.1573V59.3883C166.171 59.7034 166.282 59.9713 166.502 60.1921C166.723 60.4123 166.99 60.5227 167.306 60.5227H167.341C167.585 60.5227 167.806 60.4502 168.003 60.3041C168.2 60.162 168.336 59.9789 168.41 59.7543C168.493 59.5102 168.667 59.3883 168.931 59.3883ZM175.586 53.0006C175.74 53.0006 175.87 53.0538 175.976 53.1603C176.082 53.2701 176.136 53.4005 176.136 53.5503C176.136 53.7041 176.082 53.8338 175.976 53.9404C175.87 54.0508 175.74 54.1055 175.586 54.1055H174.109V61.0725C174.109 61.2261 174.055 61.3581 173.95 61.4678C173.839 61.5744 173.709 61.6276 173.56 61.6276C173.406 61.6276 173.275 61.5744 173.17 61.4678C173.059 61.3581 173.004 61.2261 173.004 61.0725V54.1055H171.533C171.379 54.1055 171.247 54.0508 171.136 53.9404C171.031 53.8338 170.977 53.7041 170.977 53.5503C170.977 53.4005 171.031 53.2701 171.136 53.1603C171.247 53.0538 171.379 53.0006 171.533 53.0006H175.586ZM177.332 61.0547C177.332 61.0547 177.332 61.0601 177.332 61.0725V53.4732C177.332 53.3195 177.385 53.1897 177.491 53.0832C177.601 52.9727 177.733 52.9178 177.887 52.9178C178.037 52.9178 178.167 52.9727 178.277 53.0832C178.384 53.1897 178.437 53.3195 178.437 53.4732V58.7266L181.184 53.2192L181.191 53.2075L181.196 53.2012C181.212 53.1781 181.228 53.1565 181.243 53.1363V53.1303C181.354 52.9889 181.497 52.9178 181.675 52.9178C181.828 52.9178 181.958 52.9727 182.065 53.0832C182.175 53.1897 182.23 53.3195 182.23 53.4732V61.0725C182.23 61.2261 182.175 61.3559 182.065 61.4625C181.958 61.5728 181.828 61.6276 181.675 61.6276C181.521 61.6276 181.391 61.5728 181.285 61.4625C181.178 61.3559 181.125 61.2261 181.125 61.0725V55.819L178.377 61.3264C178.306 61.4602 178.198 61.5513 178.052 61.5985C177.906 61.6456 177.767 61.6339 177.633 61.5628C177.476 61.484 177.379 61.3559 177.343 61.1781V61.1667C177.34 61.1474 177.337 61.1258 177.337 61.1018C177.334 61.0702 177.332 61.0547 177.332 61.0547ZM188.36 52.9178C188.514 52.9178 188.644 52.9727 188.751 53.0832C188.861 53.1897 188.916 53.3195 188.916 53.4732V61.0725C188.916 61.2261 188.861 61.3581 188.751 61.4678C188.644 61.5744 188.514 61.6276 188.36 61.6276C188.207 61.6276 188.077 61.5744 187.971 61.4678C187.864 61.3581 187.811 61.2261 187.811 61.0725V58.0763C187.398 58.348 186.946 58.484 186.458 58.484H186.416C185.739 58.484 185.16 58.2439 184.679 57.7635C184.198 57.2826 183.958 56.7034 183.958 56.0262V53.4732C183.958 53.3195 184.011 53.1897 184.118 53.0832C184.228 52.9727 184.361 52.9178 184.513 52.9178C184.663 52.9178 184.794 52.9727 184.904 53.0832C185.01 53.1897 185.063 53.3195 185.063 53.4732V56.0262C185.063 56.4007 185.195 56.7196 185.459 56.9827C185.724 57.2469 186.042 57.3791 186.416 57.3791H186.458C186.828 57.3791 187.145 57.2469 187.409 56.9827C187.677 56.7196 187.811 56.4007 187.811 56.0262V53.4732C187.811 53.3195 187.864 53.1897 187.971 53.0832C188.077 52.9727 188.207 52.9178 188.36 52.9178ZM194.29 60.5227C194.443 60.5227 194.573 60.5758 194.68 60.6824C194.789 60.7928 194.845 60.9225 194.845 61.0725C194.845 61.2261 194.789 61.3581 194.68 61.4678C194.573 61.5744 194.443 61.6276 194.29 61.6276H191.376C191.222 61.6276 191.09 61.5744 190.98 61.4678C190.874 61.3581 190.821 61.2261 190.821 61.0725V53.6801C190.821 53.5304 190.874 53.4005 190.98 53.29C191.09 53.1835 191.222 53.1303 191.376 53.1303H194.29C194.443 53.1303 194.573 53.1835 194.68 53.29C194.789 53.4005 194.845 53.5304 194.845 53.6801C194.845 53.8338 194.789 53.9635 194.68 54.0701C194.573 54.1805 194.443 54.2352 194.29 54.2352H191.926V56.5282H193.934C194.088 56.5282 194.22 56.5813 194.331 56.6879C194.437 56.7945 194.49 56.9242 194.49 57.0779C194.49 57.2314 194.437 57.3613 194.331 57.4677C194.22 57.5781 194.088 57.6331 193.934 57.6331H191.926V60.5227H194.29ZM200.26 59.3883C200.445 59.3883 200.595 59.4648 200.709 59.6183C200.819 59.7683 200.845 59.9318 200.786 60.1087C200.636 60.5543 200.369 60.9165 199.982 61.1961C199.592 61.484 199.155 61.6276 198.67 61.6276H198.635C198.016 61.6276 197.489 61.409 197.052 60.9722C196.614 60.5344 196.396 60.0068 196.396 59.3883V55.1573C196.396 54.5426 196.614 54.0167 197.052 53.5798C197.489 53.1426 198.016 52.9234 198.635 52.9234H198.67C199.155 52.9234 199.592 53.0654 199.982 53.3488C200.369 53.6291 200.636 53.9935 200.786 54.4423C200.845 54.616 200.819 54.7789 200.709 54.9327C200.595 55.0823 200.445 55.1573 200.26 55.1573C199.996 55.1573 199.823 55.0368 199.74 54.7967C199.665 54.568 199.529 54.3836 199.332 54.2415C199.135 54.0995 198.914 54.0283 198.67 54.0283H198.635C198.32 54.0283 198.052 54.1387 197.832 54.3596C197.611 54.5806 197.501 54.8461 197.501 55.1573V59.3883C197.501 59.7034 197.611 59.9713 197.832 60.1921C198.052 60.4123 198.32 60.5227 198.635 60.5227H198.67C198.914 60.5227 199.135 60.4502 199.332 60.3041C199.529 60.162 199.665 59.9789 199.74 59.7543C199.823 59.5102 199.996 59.3883 200.26 59.3883ZM207.069 60.7359C207.164 60.8617 207.199 60.9991 207.175 61.149C207.152 61.3027 207.079 61.4245 206.957 61.5156C206.831 61.6099 206.693 61.6456 206.543 61.6216C206.389 61.5984 206.266 61.5251 206.171 61.403L203.553 57.8516V61.0601C203.553 61.2177 203.498 61.352 203.388 61.4625C203.277 61.5728 203.145 61.6276 202.992 61.6276C202.834 61.6276 202.7 61.5728 202.59 61.4625C202.48 61.352 202.425 61.2177 202.425 61.0601V53.4846C202.425 53.3271 202.48 53.1936 202.59 53.0832C202.7 52.9727 202.834 52.9178 202.992 52.9178C203.145 52.9178 203.277 52.9727 203.388 53.0832C203.498 53.1936 203.553 53.3271 203.553 53.4846V56.0731L206.053 53.1125C206.155 52.9983 206.283 52.9357 206.437 52.9234C206.59 52.9117 206.724 52.9551 206.839 53.0538C206.957 53.1565 207.022 53.284 207.033 53.4375C207.046 53.5914 207.002 53.7256 206.904 53.84L204.28 56.948L207.069 60.7359ZM208.762 61.0547C208.762 61.0547 208.762 61.0601 208.762 61.0725V53.4732C208.762 53.3195 208.816 53.1897 208.922 53.0832C209.032 52.9727 209.164 52.9178 209.318 52.9178C209.467 52.9178 209.597 52.9727 209.708 53.0832C209.814 53.1897 209.867 53.3195 209.867 53.4732V58.7266L212.615 53.2192L212.621 53.2075L212.627 53.2012C212.643 53.1781 212.658 53.1565 212.674 53.1363V53.1303C212.784 52.9889 212.928 52.9178 213.105 52.9178C213.259 52.9178 213.389 52.9727 213.495 53.0832C213.606 53.1897 213.661 53.3195 213.661 53.4732V61.0725C213.661 61.2261 213.606 61.3559 213.495 61.4625C213.389 61.5728 213.259 61.6276 213.105 61.6276C212.952 61.6276 212.822 61.5728 212.715 61.4625C212.609 61.3559 212.555 61.2261 212.555 61.0725V55.819L209.808 61.3264C209.737 61.4602 209.629 61.5513 209.483 61.5985C209.337 61.6456 209.197 61.6339 209.064 61.5628C208.906 61.484 208.81 61.3559 208.774 61.1781V61.1667C208.77 61.1474 208.768 61.1258 208.768 61.1018C208.764 61.0702 208.762 61.0547 208.762 61.0547ZM215.566 61.0547C215.566 61.0547 215.566 61.0601 215.566 61.0725V53.4732C215.566 53.3195 215.619 53.1897 215.725 53.0832C215.835 52.9727 215.967 52.9178 216.121 52.9178C216.271 52.9178 216.4 52.9727 216.511 53.0832C216.617 53.1897 216.671 53.3195 216.671 53.4732V58.7266L219.418 53.2192L219.424 53.2075L219.43 53.2012C219.446 53.1781 219.461 53.1565 219.477 53.1363V53.1303C219.587 52.9889 219.731 52.9178 219.909 52.9178C220.062 52.9178 220.192 52.9727 220.298 53.0832C220.409 53.1897 220.464 53.3195 220.464 53.4732V61.0725C220.464 61.2261 220.409 61.3559 220.298 61.4625C220.192 61.5728 220.062 61.6276 219.909 61.6276C219.755 61.6276 219.625 61.5728 219.519 61.4625C219.412 61.3559 219.359 61.2261 219.359 61.0725V55.819L216.611 61.3264C216.54 61.4602 216.432 61.5513 216.286 61.5985C216.14 61.6456 216 61.6339 215.867 61.5628C215.709 61.484 215.613 61.3559 215.577 61.1781V61.1667C215.573 61.1474 215.571 61.1258 215.571 61.1018C215.567 61.0702 215.566 61.0547 215.566 61.0547ZM230.343 52.9357C230.5 52.9357 230.63 52.9943 230.732 53.1125C230.843 53.2353 230.898 53.3982 230.898 53.6029V63.4594C230.898 63.5581 230.843 63.6546 230.732 63.7489C230.618 63.8478 230.489 63.8965 230.343 63.8965C230.189 63.8965 230.059 63.844 229.953 63.7374C229.846 63.627 229.793 63.4948 229.793 63.3411V61.2376C229.38 61.5096 228.928 61.6456 228.44 61.6456H228.398C227.721 61.6456 227.142 61.4052 226.661 60.9241C226.18 60.4439 225.94 59.8648 225.94 59.1875V53.4909C225.94 53.3372 225.994 53.2075 226.1 53.1009C226.211 52.9905 226.343 52.9357 226.495 52.9357C226.645 52.9357 226.776 52.9905 226.886 53.1009C226.992 53.2075 227.045 53.3372 227.045 53.4909V59.1875C227.045 59.5613 227.177 59.8809 227.441 60.1443C227.706 60.4084 228.024 60.5404 228.398 60.5404H228.44C228.81 60.5404 229.127 60.4084 229.391 60.1443C229.659 59.8809 229.793 59.5613 229.793 59.1875V53.4909C229.793 53.3372 229.846 53.2075 229.953 53.1009C230.059 52.9905 230.189 52.9357 230.343 52.9357ZM236.095 60.5227C236.248 60.5227 236.378 60.5758 236.485 60.6824C236.594 60.7928 236.65 60.9225 236.65 61.0725C236.65 61.2261 236.594 61.3581 236.485 61.4678C236.378 61.5744 236.248 61.6276 236.095 61.6276H233.181C233.028 61.6276 232.895 61.5744 232.785 61.4678C232.679 61.3581 232.626 61.2261 232.626 61.0725V53.6801C232.626 53.5304 232.679 53.4005 232.785 53.29C232.895 53.1835 233.028 53.1303 233.181 53.1303H236.095C236.248 53.1303 236.378 53.1835 236.485 53.29C236.594 53.4005 236.65 53.5304 236.65 53.6801C236.65 53.8338 236.594 53.9635 236.485 54.0701C236.378 54.1805 236.248 54.2352 236.095 54.2352H233.731V56.5282H235.739C235.893 56.5282 236.025 56.5813 236.136 56.6879C236.242 56.7945 236.296 56.9242 236.296 57.0779C236.296 57.2314 236.242 57.3613 236.136 57.4677C236.025 57.5781 235.893 57.6331 235.739 57.6331H233.731V60.5227H236.095ZM242.278 52.9234C242.432 52.9234 242.561 52.9766 242.668 53.0832C242.774 53.1897 242.828 53.3195 242.828 53.4732V61.0725C242.828 61.2261 242.774 61.3581 242.668 61.4678C242.561 61.5744 242.432 61.6276 242.278 61.6276C242.124 61.6276 241.994 61.5744 241.888 61.4678C241.777 61.3581 241.723 61.2261 241.723 61.0725V57.5265H239.483V61.0725C239.483 61.2261 239.43 61.3581 239.323 61.4678C239.213 61.5744 239.083 61.6276 238.933 61.6276C238.78 61.6276 238.648 61.5744 238.537 61.4678C238.431 61.3581 238.378 61.2261 238.378 61.0725V53.4732C238.378 53.3195 238.431 53.1897 238.537 53.0832C238.648 52.9766 238.78 52.9234 238.933 52.9234C239.083 52.9234 239.213 52.9766 239.323 53.0832C239.43 53.1897 239.483 53.3195 239.483 53.4732V56.4222H241.723V53.4732C241.723 53.3195 241.777 53.1897 241.888 53.0832C241.994 52.9766 242.124 52.9234 242.278 52.9234ZM249.223 53.0006C249.377 53.0006 249.507 53.0538 249.613 53.1603C249.72 53.2701 249.773 53.4005 249.773 53.5503C249.773 53.7041 249.72 53.8338 249.613 53.9404C249.507 54.0508 249.377 54.1055 249.223 54.1055H247.746V61.0725C247.746 61.2261 247.693 61.3581 247.587 61.4678C247.476 61.5744 247.346 61.6276 247.197 61.6276C247.043 61.6276 246.913 61.5744 246.807 61.4678C246.696 61.3581 246.641 61.2261 246.641 61.0725V54.1055H245.17C245.016 54.1055 244.884 54.0508 244.774 53.9404C244.668 53.8338 244.614 53.7041 244.614 53.5503C244.614 53.4005 244.668 53.2701 244.774 53.1603C244.884 53.0538 245.016 53.0006 245.17 53.0006H249.223ZM253.333 53.0183C253.951 53.0183 254.479 53.2368 254.916 53.6738C255.354 54.1118 255.572 54.6375 255.572 55.2516V55.287C255.572 55.9057 255.354 56.4337 254.916 56.8708C254.479 57.3079 253.951 57.5265 253.333 57.5265H252.074V61.0725C252.074 61.2261 252.021 61.3581 251.914 61.4678C251.804 61.5744 251.674 61.6276 251.524 61.6276C251.371 61.6276 251.239 61.5744 251.128 61.4678C251.022 61.3581 250.969 61.2261 250.969 61.0725V53.5681C250.969 53.4144 251.022 53.284 251.128 53.1781C251.239 53.0717 251.371 53.0183 251.524 53.0183H253.333ZM130.077 21.2947C129.497 20.7777 128.845 20.3549 128.138 20.0376C127.402 19.7078 126.619 19.5402 125.807 19.5402H121.945H115.686H112.625C111.814 19.5402 111.03 19.7078 110.295 20.0376C109.588 20.3549 108.935 20.7777 108.355 21.2947C107.762 21.8225 107.276 22.4576 106.913 23.1828C106.54 23.9278 106.352 24.7056 106.352 25.4948V45.1457H111.744V27.6751C111.744 25.752 112.557 24.9314 114.463 24.9314H115.807H121.936H123.969C125.876 24.9314 126.689 25.752 126.689 27.6751V32.0774V45.1457H132.08V31.6817V25.4948C132.08 24.7056 131.892 23.9278 131.52 23.1828C131.156 22.4576 130.67 21.8225 130.077 21.2947ZM254.467 55.2516C254.467 54.9403 254.355 54.6746 254.131 54.4538C253.91 54.2336 253.643 54.1233 253.333 54.1233H252.074V56.4222H253.333C253.643 56.4222 253.91 56.3118 254.131 56.091C254.355 55.8702 254.467 55.6029 254.467 55.287V55.2516ZM249.223 53.0006C249.377 53.0006 249.507 53.0538 249.613 53.1603C249.72 53.2701 249.773 53.4005 249.773 53.5503C249.773 53.7041 249.72 53.8338 249.613 53.9404C249.507 54.0508 249.377 54.1055 249.223 54.1055H247.746V61.0725C247.746 61.2261 247.693 61.3581 247.587 61.4678C247.476 61.5744 247.346 61.6276 247.197 61.6276C247.043 61.6276 246.913 61.5744 246.807 61.4678C246.696 61.3581 246.641 61.2261 246.641 61.0725V54.1055H245.17C245.016 54.1055 244.884 54.0508 244.774 53.9404C244.668 53.8338 244.614 53.7041 244.614 53.5503C244.614 53.4005 244.668 53.2701 244.774 53.1603C244.884 53.0538 245.016 53.0006 245.17 53.0006H249.223ZM216.983 52.0137C216.688 51.8207 216.464 51.5666 216.31 51.2514C216.223 51.0663 216.233 50.8854 216.339 50.7079C216.45 50.5349 216.607 50.4476 216.812 50.4476C217.041 50.4476 217.212 50.5618 217.326 50.7905C217.468 51.0584 217.688 51.1922 217.988 51.1922C218.292 51.1922 218.512 51.0584 218.65 50.7905C218.768 50.5618 218.939 50.4476 219.164 50.4476C219.369 50.4476 219.526 50.5349 219.637 50.7079C219.747 50.8854 219.757 51.0663 219.666 51.2514C219.516 51.5666 219.292 51.8207 218.993 52.0137C218.689 52.2105 218.355 52.3094 217.988 52.3094C217.626 52.3094 217.291 52.2105 216.983 52.0137ZM175.586 53.0006C175.74 53.0006 175.87 53.0538 175.976 53.1603C176.082 53.2701 176.136 53.4005 176.136 53.5503C176.136 53.7041 176.082 53.8338 175.976 53.9404C175.87 54.0508 175.74 54.1055 175.586 54.1055H174.109V61.0725C174.109 61.2261 174.055 61.3581 173.95 61.4678C173.839 61.5744 173.709 61.6276 173.56 61.6276C173.406 61.6276 173.275 61.5744 173.17 61.4678C173.059 61.3581 173.004 61.2261 173.004 61.0725V54.1055H171.533C171.379 54.1055 171.247 54.0508 171.136 53.9404C171.031 53.8338 170.977 53.7041 170.977 53.5503C170.977 53.4005 171.031 53.2701 171.136 53.1603C171.247 53.0538 171.379 53.0006 171.533 53.0006H175.586ZM160.011 54.4361C159.735 54.7125 159.597 55.043 159.597 55.4292V59.1164C159.597 59.5026 159.735 59.8331 160.011 60.1087C160.283 60.3851 160.613 60.5227 161.004 60.5227C161.39 60.5227 161.721 60.3851 161.996 60.1087C162.272 59.8331 162.41 59.5026 162.41 59.1164V55.4292C162.41 55.043 162.272 54.7125 161.996 54.4361C161.721 54.1643 161.39 54.0283 161.004 54.0283C160.613 54.0283 160.283 54.1643 160.011 54.4361ZM144.221 56.4222V55.1573C144.221 55.0076 144.192 54.8638 144.132 54.7258L144.126 54.7141C144.083 54.616 144.028 54.5249 143.961 54.4423C143.965 54.4461 143.961 54.4407 143.949 54.4246C143.914 54.3851 143.874 54.3458 143.831 54.3064C143.815 54.2947 143.803 54.2848 143.795 54.2769C143.772 54.257 143.749 54.2393 143.725 54.2238C143.701 54.2083 143.675 54.1921 143.648 54.1766C143.624 54.1643 143.596 54.1511 143.565 54.1349C143.538 54.1233 143.51 54.1118 143.482 54.0995C143.45 54.0878 143.433 54.0817 143.429 54.0817C143.385 54.0663 143.341 54.0546 143.293 54.0461C143.285 54.0461 143.27 54.0447 143.246 54.0407C143.191 54.033 143.142 54.0283 143.098 54.0283H143.045C143.002 54.0283 142.952 54.033 142.898 54.0407C142.874 54.0447 142.858 54.0461 142.85 54.0461C142.802 54.0546 142.758 54.0663 142.714 54.0817L142.655 54.0995C142.627 54.1118 142.602 54.1233 142.578 54.1349C142.543 54.1511 142.515 54.1643 142.495 54.1766C142.464 54.1921 142.438 54.2083 142.419 54.2238C142.395 54.2393 142.372 54.257 142.348 54.2769C142.344 54.2769 142.332 54.2871 142.312 54.3064C142.269 54.3458 142.23 54.3851 142.194 54.4246C142.19 54.4285 142.188 54.4323 142.188 54.4361C142.184 54.4407 142.18 54.4423 142.176 54.4423C142.109 54.5249 142.056 54.616 142.017 54.7141C142.017 54.7103 142.015 54.7141 142.011 54.7258C141.952 54.8638 141.922 55.0076 141.922 55.1573V56.4222H144.221ZM128.652 60.647H130.951V54.0995H128.652V60.647ZM116.215 54.4361C115.939 54.7125 115.801 55.043 115.801 55.4292V59.1164C115.801 59.5026 115.939 59.8331 116.215 60.1087C116.486 60.3851 116.818 60.5227 117.208 60.5227C117.593 60.5227 117.924 60.3851 118.2 60.1087C118.476 59.8331 118.614 59.5026 118.614 59.1164V55.4292C118.614 55.043 118.476 54.7125 118.2 54.4361C117.924 54.1643 117.593 54.0283 117.208 54.0283C116.818 54.0283 116.486 54.1643 116.215 54.4361ZM105.686 59.0872C105.686 58.7088 105.554 58.3837 105.29 58.1117C105.022 57.8438 104.704 57.7103 104.333 57.7103H103.08V60.5049H104.333C104.704 60.5049 105.022 60.369 105.29 60.0972C105.554 59.8293 105.686 59.5064 105.686 59.128V59.0872Z" fill="#737372"/>
<path d="M39.5371 47.3824V53.0232C39.5371 55.9861 37.1267 58.3968 34.1637 58.3968H30.482C27.5192 58.3968 25.1087 55.9861 25.1087 53.0232V45.8013C25.1087 41.9912 22.0086 38.8916 18.1986 38.8916H10.9769C8.01443 38.8916 5.60391 36.4806 5.60391 33.5181V29.8362C5.60391 26.8737 8.01443 24.4631 10.9769 24.4631H29.9404C35.232 24.4631 39.5371 28.7683 39.5371 34.0598V37.2966H45.141V34.0598C45.141 25.6783 38.322 18.8592 29.9404 18.8592H10.9769C4.92442 18.8592 0 23.7837 0 29.8362V33.5181C0 39.5711 4.92442 44.4948 10.9769 44.4948H18.1986C18.9191 44.4948 19.5048 45.0807 19.5048 45.8013V53.0232C19.5048 59.0756 24.4292 64.0001 30.482 64.0001H34.1637C40.2166 64.0001 45.141 59.0756 45.141 53.0232V47.3824H39.5371ZM47.5718 13.4395V17.5301H52.7478C58.6979 17.5301 63.5387 12.6889 63.5387 6.73853V2.64819H58.3627C52.4125 2.64819 47.5718 7.48915 47.5718 13.4395Z" fill="#43AC3E"/>
<path d="M53.8192 19.5052H46.5975C45.8772 19.5052 45.2913 18.9195 45.2913 18.199V10.9773C45.2913 4.92442 40.3671 0 34.3144 0H30.6327C24.5795 0 19.6553 4.92442 19.6553 10.9773V16.6178H25.2592V10.9773C25.2592 8.01438 27.6695 5.60391 30.6327 5.60391H34.3144C37.2771 5.60391 39.6874 8.01438 39.6874 10.9773V18.199C39.6874 22.0091 42.7875 25.1091 46.5975 25.1091H53.8192C56.7819 25.1091 59.1924 27.5196 59.1924 30.4821V34.1641C59.1924 37.1271 56.7819 39.5378 53.8192 39.5378H34.8559C29.5641 39.5378 25.2592 35.2329 25.2592 29.9409V26.7044H19.6553V29.9409C19.6553 38.3224 26.4741 45.141 34.8559 45.141H53.8192C59.8719 45.141 64.7963 40.2166 64.7963 34.1641V30.4821C64.7963 24.4297 59.8719 19.5052 53.8192 19.5052Z" fill="#E51474"/>
</svg>
