<!-- icon666.com - MILLIONS vector ICONS FREE -->
<svg fill="green" id="Line" viewBox="0 0 64 64" xmlns="http://www.w3.org/2000/svg">
    <path d="m55 6h-46a5.00588 5.00588 0 0 0 -5 5v42a5.00588 5.00588 0 0 0 5 5h46a5.00588 5.00588 0 0 0 5-5v-42a5.00588 5.00588 0 0 0 -5-5zm3 47a3.00328 3.00328 0 0 1 -3 3h-46a3.00328 3.00328 0 0 1 -3-3v-35.35693h52zm0-37.35693h-52v-4.64307a3.00328 3.00328 0 0 1 3-3h46a3.00328 3.00328 0 0 1 3 3z"/>
    <path d="m52 10.82141a1.00019 1.00019 0 0 0 .00006 2 1.00019 1.00019 0 0 0 -.00006-2z"/>
    <path d="m48 10.82141a1.00019 1.00019 0 0 0 .00006 2 1.00019 1.00019 0 0 0 -.00006-2z"/>
    <path d="m44 10.82141a1.00019 1.00019 0 0 0 .00006 2 1.00019 1.00019 0 0 0 -.00006-2z"/>
    <path d="m20 10.82129h-8a1.00019 1.00019 0 0 0 .00006 2h7.99994a1.00019 1.00019 0 0 0 0-2z"/>
    <path d="m17 37.82129h6v5.5a1.00011 1.00011 0 0 0 2 0v-13a1 1 0 0 0 -2 0v5.5h-6v-5.5a1.00011 1.00011 0 0 0 -2 0v5.49995a2.002 2.002 0 0 0 2 2.00005z"/>
    <path d="m41 37.82129h6v5.5a1.00011 1.00011 0 0 0 2 0v-13a1 1 0 0 0 -2 0v5.5h-6v-5.5a1.00011 1.00011 0 0 0 -2 0v5.49995a2.002 2.002 0 0 0 2 2.00005z"/>
    <path d="m29 44.32129h6a2.002 2.002 0 0 0 2-2v-11a2.002 2.002 0 0 0 -2-2h-6a2.002 2.002 0 0 0 -2 2v11a2.002 2.002 0 0 0 2 2zm0-13h6l.00146 11h-6.00146z"/>
</svg>