<svg width="37" height="33" viewBox="0 0 37 33" fill="none" xmlns="http://www.w3.org/2000/svg">
<g clip-path="url(#clip0_301_85)">
<path d="M0 12.1078V30.3878C0 31.0127 0.223943 31.5492 0.671829 31.9971C1.11972 32.4449 1.65614 32.6689 2.28109 32.6689H9.15562V9.8267H2.28109C1.65614 9.8267 1.11972 10.0454 0.671829 10.4829C0.223943 10.9204 0 11.462 0 12.1078ZM32.3415 12.1078H25.592C25.3004 12.1078 25.0764 12.0349 24.9202 11.8891C24.7639 11.7432 24.665 11.6287 24.6233 11.5453C24.5608 11.462 24.5035 11.3162 24.4515 11.1079C24.3994 10.8995 24.4462 10.66 24.5921 10.3892L26.9669 6.1082C27.2377 5.6499 27.3835 5.15514 27.4044 4.62393C27.4252 4.09271 27.3315 3.57712 27.1231 3.07716C26.9148 2.59802 26.6076 2.18659 26.2013 1.84287C25.7951 1.49914 25.3316 1.26478 24.8108 1.13979L23.1234 0.70232C22.9151 0.660656 22.712 0.671072 22.5141 0.733568C22.3162 0.796063 22.1443 0.900223 21.9985 1.04605L12.9054 11.1704C12.4262 11.6912 12.0617 12.2849 11.8117 12.9515C11.5617 13.6181 11.4367 14.2951 11.4367 14.9826V26.9505C11.4367 28.5338 11.994 29.8826 13.1085 30.9971C14.223 32.1116 15.5719 32.6689 17.1551 32.6689H28.4981C29.7896 32.6689 30.9458 32.2783 31.9666 31.4971C32.9873 30.7159 33.6748 29.7003 34.0289 28.4504L36.4663 17.2637C36.5079 17.1179 36.534 16.9616 36.5444 16.795C36.5548 16.6283 36.56 16.4721 36.56 16.3263C36.56 15.1597 36.1486 14.1649 35.3257 13.3421C34.5028 12.5192 33.5081 12.1078 32.3415 12.1078Z" fill="#43AC3E"/>
</g>
<defs>
<clipPath id="clip0_301_85">
<rect width="36.56" height="32" fill="white" transform="matrix(1 0 0 -1 0 32.67)"/>
</clipPath>
</defs>
</svg>
