<svg width="20" height="17" viewBox="0 0 20 17" fill="none" xmlns="http://www.w3.org/2000/svg">
<g clip-path="url(#clip0_301_176)">
<path d="M5.43816 5.37261V16.7781H2.0009C1.68842 16.7781 1.42021 16.6661 1.19627 16.4422C0.972323 16.2182 0.860352 15.95 0.860352 15.6375V6.51315C0.860352 6.20067 0.972323 5.93246 1.19627 5.70852C1.42021 5.48458 1.68842 5.37261 2.0009 5.37261H5.43816ZM3.90702 6.88813H2.3915V15.2469H3.90702V6.88813ZM6.95368 6.52878C7.00576 6.44545 7.06045 6.36473 7.11774 6.28661C7.17502 6.20849 7.24012 6.12776 7.31304 6.04444L11.8596 0.997905C11.9325 0.924993 12.0184 0.872914 12.1174 0.841666C12.2163 0.810418 12.3179 0.80521 12.4221 0.826042L13.2658 1.02915C13.5262 1.10206 13.7579 1.22445 13.961 1.39632C14.1641 1.56818 14.3178 1.77389 14.4219 2.01346C14.5261 2.26344 14.573 2.51863 14.5625 2.77903C14.5521 3.03943 14.4792 3.28942 14.3438 3.52898L13.1564 5.66946C13.0835 5.79445 13.06 5.90903 13.0861 6.01319C13.1121 6.11735 13.1408 6.19026 13.172 6.23192C13.1928 6.27359 13.2423 6.33087 13.3204 6.40379C13.3986 6.4767 13.5105 6.51315 13.6564 6.51315H17.0311C17.6144 6.51315 18.1118 6.71887 18.5232 7.1303C18.9346 7.54173 19.1404 8.03909 19.1404 8.62238C19.1404 8.6953 19.1377 8.77342 19.1325 8.85674C19.1273 8.94007 19.1143 9.01819 19.0935 9.0911L17.8748 14.6688C17.6977 15.2938 17.354 15.8016 16.8436 16.1922C16.3333 16.5828 15.7552 16.7781 15.1094 16.7781H9.43789C8.90668 16.7781 8.42233 16.6453 7.98486 16.3797C7.54739 16.1141 7.20367 15.7677 6.95368 15.3407C6.82869 15.1324 6.73495 14.9084 6.67245 14.6688C6.60996 14.4293 6.57871 14.1793 6.57871 13.9189V7.95055C6.57871 7.70057 6.60996 7.4558 6.67245 7.21623C6.73495 6.97666 6.82869 6.74751 6.95368 6.52878ZM8.43796 7.07561C8.32338 7.19019 8.23745 7.3256 8.18016 7.48184C8.12288 7.63808 8.09423 7.79432 8.09423 7.95055V13.9189C8.09423 14.2835 8.22443 14.5959 8.48483 14.8563C8.74523 15.1167 9.06292 15.2469 9.43789 15.2469H15.1094C15.4114 15.2469 15.6797 15.1584 15.914 14.9813C16.1484 14.8043 16.3072 14.5803 16.3905 14.3095L17.6092 8.74738C17.6092 8.72654 17.6118 8.70571 17.617 8.68488C17.6222 8.66405 17.6248 8.64322 17.6248 8.62238C17.6248 8.45573 17.5675 8.31511 17.453 8.20054C17.3384 8.08596 17.1978 8.02867 17.0311 8.02867H13.6564C13.1147 8.02867 12.6981 7.89327 12.4064 7.62245C12.1148 7.35164 11.9273 7.14332 11.844 6.99749C11.7711 6.86209 11.6851 6.60169 11.5862 6.2163C11.4872 5.83091 11.568 5.39865 11.8284 4.91951L13.0158 2.77903C13.0262 2.76862 13.034 2.7556 13.0392 2.73997C13.0444 2.72435 13.047 2.71133 13.047 2.70091C13.047 2.6905 13.0444 2.68008 13.0392 2.66967C13.034 2.65925 13.0314 2.64363 13.0314 2.62279C13.0106 2.59155 12.9897 2.56811 12.9689 2.55249C12.9481 2.53686 12.922 2.52384 12.8908 2.51343L12.6095 2.45093L8.43796 7.07561Z" fill="white"/>
</g>
<defs>
<clipPath id="clip0_301_176">
<rect width="18.28" height="16" fill="white" transform="matrix(1 0 0 -1 0.860352 16.8098)"/>
</clipPath>
</defs>
</svg>
